<?xml version="1.0" encoding="iso-8859-1"?>
<!-- Generator: Adobe Illustrator 16.0.0, SVG Export Plug-In . SVG Version: 6.00 Build 0)  -->
<!DOCTYPE svg PUBLIC "-//W3C//DTD SVG 1.1//EN" "http://www.w3.org/Graphics/SVG/1.1/DTD/svg11.dtd">
<svg version="1.1" id="Capa_1" xmlns="http://www.w3.org/2000/svg" xmlns:xlink="http://www.w3.org/1999/xlink" x="0px" y="0px"
	 width="44.535px" height="44.536px" viewBox="0 0 44.535 44.536" style="enable-background:new 0 0 44.535 44.536;"
	 xml:space="preserve">
<g>
	<g>
		<path d="M38.295,9.503c0-1.751-1.425-3.175-3.176-3.175s-3.176,1.424-3.176,3.175s1.425,3.176,3.176,3.176
			S38.295,11.254,38.295,9.503z M35.12,10.679c-0.647,0-1.176-0.527-1.176-1.176c0-0.647,0.526-1.175,1.176-1.175
			s1.176,0.527,1.176,1.175C36.295,10.152,35.768,10.679,35.12,10.679z"/>
		<path d="M6.285,30.8c0,1.751,1.424,3.176,3.175,3.176s3.176-1.425,3.176-3.176c0-1.75-1.425-3.175-3.176-3.175
			S6.285,29.05,6.285,30.8z M10.635,30.8c0,0.647-0.527,1.176-1.176,1.176c-0.647,0-1.175-0.526-1.175-1.176
			c0-0.647,0.527-1.175,1.175-1.175C10.108,29.625,10.635,30.153,10.635,30.8z"/>
		<path d="M33.832,14.542v7.098c0,0.553,0.447,1,1,1s1-0.447,1-1v-7.098c0-0.553-0.447-1-1-1S33.832,13.99,33.832,14.542z"/>
		<path d="M37.982,26.077c0.252,0,0.478-0.103,0.652-0.257c0.051,0.009,0.098,0.029,0.148,0.029c0.256,0,0.512-0.099,0.707-0.293
			l4.752-4.752c0.391-0.391,0.391-1.023,0-1.414l-5.553-5.554c-0.092-0.093-0.202-0.166-0.325-0.217
			c-0.244-0.102-0.521-0.102-0.765,0s-0.438,0.296-0.541,0.541c-0.051,0.122-0.076,0.252-0.076,0.382v10.533
			C36.982,25.627,37.43,26.077,37.982,26.077z M38.982,23.236v-6.278l3.14,3.14L38.982,23.236z"/>
		<path d="M31.278,26.077c0.553,0,1-0.447,1-1V14.542c0-0.005-0.003-0.009-0.003-0.014c-0.002-0.086-0.027-0.167-0.051-0.248
			c-0.013-0.045-0.013-0.094-0.029-0.135c-0.024-0.056-0.068-0.1-0.102-0.15c-0.039-0.056-0.066-0.117-0.115-0.165
			c-0.03-0.03-0.074-0.047-0.109-0.074c-0.068-0.052-0.137-0.105-0.217-0.139c-0.006-0.002-0.008-0.006-0.014-0.008l-8.463-3.282
			c-0.512-0.199-1.094,0.056-1.293,0.571c-0.199,0.515,0.056,1.094,0.571,1.294l7.824,3.034v9.849
			C30.278,25.627,30.725,26.077,31.278,26.077z"/>
		<path d="M27.795,19.822H6.81V4.906c0-0.553-0.447-1-1-1c-0.553,0-1,0.447-1,1v15.916c0,0.553,0.447,1,1,1h21.985
			c0.553,0,1-0.447,1-1C28.795,20.269,28.348,19.822,27.795,19.822z"/>
		<path d="M0,2.014c0,0.553,0.447,1,1,1h36.295c0.553,0,1-0.447,1-1c0-0.553-0.447-1-1-1H1C0.448,1.014,0,1.461,0,2.014z"/>
		<path d="M10.074,16.04v-4.78c0-0.553-0.447-1-1-1c-0.553,0-1,0.447-1,1v4.779c0,0.553,0.447,1,1,1
			C9.627,17.039,10.074,16.592,10.074,16.04z"/>
		<path d="M13.508,16.04v-7.7c0-0.553-0.447-1-1-1c-0.553,0-1,0.447-1,1v7.699c0,0.553,0.447,1,1,1
			C13.061,17.039,13.508,16.592,13.508,16.04z"/>
		<path d="M17.802,16.04v-3.85c0-0.553-0.447-1-1-1c-0.553,0-1,0.447-1,1v3.85c0,0.553,0.447,1,1,1
			C17.355,17.04,17.802,16.592,17.802,16.04z"/>
		<path d="M5.424,43.521h8.072c0.031,0,0.057-0.015,0.087-0.019h7.985h8.075c0.553,0,1-0.446,1-1v-5.84c0-0.554-0.447-1-1-1h-8.075
			h-8.072c-0.031,0-0.057,0.015-0.087,0.018H5.424c-0.553,0-1,0.447-1,1v5.841C4.424,43.075,4.871,43.521,5.424,43.521z
			 M28.643,41.502h-6.073v-3.84h6.073V41.502z M20.569,41.502h-6.072v-3.84h6.072V41.502z M6.424,37.68h6.072v3.841H6.424V37.68z"/>
		<path d="M14.358,30.784c0,1.75,1.424,3.176,3.175,3.176s3.175-1.426,3.175-3.176s-1.424-3.175-3.175-3.175
			S14.358,29.034,14.358,30.784z M18.707,30.784c0,0.647-0.527,1.176-1.175,1.176s-1.175-0.527-1.175-1.176
			c0-0.647,0.527-1.175,1.175-1.175S18.707,30.135,18.707,30.784z"/>
		<path d="M25.605,27.609c-1.75,0-3.175,1.425-3.175,3.175s1.425,3.176,3.175,3.176c1.752,0,3.177-1.426,3.177-3.176
			S27.357,27.609,25.605,27.609z M25.605,31.958c-0.647,0-1.176-0.526-1.176-1.176c0-0.646,0.527-1.174,1.176-1.174
			c0.649,0,1.177,0.526,1.177,1.174C26.782,31.431,26.254,31.958,25.605,31.958z"/>
	</g>
</g>
<g>
</g>
<g>
</g>
<g>
</g>
<g>
</g>
<g>
</g>
<g>
</g>
<g>
</g>
<g>
</g>
<g>
</g>
<g>
</g>
<g>
</g>
<g>
</g>
<g>
</g>
<g>
</g>
<g>
</g>
</svg>
